<svg xmlns="http://www.w3.org/2000/svg" viewBox="0 0 400 400" fill="none">
  <defs>
    <!-- Main leaf gradient -->
    <linearGradient id="leafGradient" x1="0%" y1="0%" x2="100%" y2="100%">
      <stop offset="0%" style="stop-color:#9CCC65;stop-opacity:1" />
      <stop offset="50%" style="stop-color:#66BB6A;stop-opacity:1" />
      <stop offset="100%" style="stop-color:#2E7D32;stop-opacity:1" />
    </linearGradient>

    <!-- Vein gradient -->
    <linearGradient id="veinGradient" x1="0%" y1="0%" x2="0%" y2="100%">
      <stop offset="0%" style="stop-color:#C5E1A5;stop-opacity:0.8" />
      <stop offset="100%" style="stop-color:#2E7D32;stop-opacity:0.6" />
    </linearGradient>
  </defs>

  <!-- Main leaf shape -->
  <path
    d="M 200 50
       Q 280 100, 320 180
       Q 340 240, 320 290
       Q 300 330, 260 350
       Q 230 365, 200 370
       Q 170 365, 140 350
       Q 100 330, 80 290
       Q 60 240, 80 180
       Q 120 100, 200 50 Z"
    fill="url(#leafGradient)"
  />

  <!-- Center vein -->
  <path
    d="M 200 50
       Q 202 150, 200 250
       Q 198 300, 200 370"
    stroke="url(#veinGradient)"
    stroke-width="4"
    stroke-linecap="round"
    fill="none"
  />

  <!-- Side veins (left) -->
  <path
    d="M 200 120 Q 150 140, 120 180"
    stroke="#C5E1A5"
    stroke-width="2"
    stroke-linecap="round"
    fill="none"
    opacity="0.6"
  />
  <path
    d="M 200 180 Q 140 200, 100 240"
    stroke="#C5E1A5"
    stroke-width="2"
    stroke-linecap="round"
    fill="none"
    opacity="0.6"
  />
  <path
    d="M 200 240 Q 150 260, 120 290"
    stroke="#C5E1A5"
    stroke-width="2"
    stroke-linecap="round"
    fill="none"
    opacity="0.6"
  />

  <!-- Side veins (right) -->
  <path
    d="M 200 120 Q 250 140, 280 180"
    stroke="#C5E1A5"
    stroke-width="2"
    stroke-linecap="round"
    fill="none"
    opacity="0.6"
  />
  <path
    d="M 200 180 Q 260 200, 300 240"
    stroke="#C5E1A5"
    stroke-width="2"
    stroke-linecap="round"
    fill="none"
    opacity="0.6"
  />
  <path
    d="M 200 240 Q 250 260, 280 290"
    stroke="#C5E1A5"
    stroke-width="2"
    stroke-linecap="round"
    fill="none"
    opacity="0.6"
  />
</svg>
